<?xml version="1.0" encoding="UTF-8" standalone="no"?>
<svg
   width="625"
   height="600"
   viewBox="0 0 1250 1200"
   version="1.1"
   id="svg6"
   sodipodi:docname="China Expwy G12 sign with name.svg"
   xmlns:inkscape="http://www.inkscape.org/namespaces/inkscape"
   xmlns:sodipodi="http://sodipodi.sourceforge.net/DTD/sodipodi-0.dtd"
   xmlns="http://www.w3.org/2000/svg"
   xmlns:svg="http://www.w3.org/2000/svg">
  <defs
     id="defs6" />
  <sodipodi:namedview
     id="namedview6"
     pagecolor="#ffffff"
     bordercolor="#000000"
     borderopacity="0.25"
     inkscape:showpageshadow="2"
     inkscape:pageopacity="0.0"
     inkscape:pagecheckerboard="0"
     inkscape:deskcolor="#d1d1d1" />
  <path
     d="M1130 1200H120c-66.3 0-120-53.7-120-120V120C0 53.7 53.7 0 120 0h1010c66.3 0 120 53.7 120 120v960c0 66.3-53.7 120-120 120z"
     fill="#08963b"
     id="path1" />
  <path
     d="M1130 1170H120c-49.7 0-90-40.3-90-90V120c0-49.7 40.3-90 90-90h1010c49.7 0 90 40.3 90 90v960c0 49.7-40.3 90-90 90z"
     fill="#fff"
     id="path2" />
  <path
     d="M1130 1140H120c-33.1 0-60-26.9-60-60V260h1130v820c0 33.1-26.9 60-60 60z"
     fill="#08963b"
     id="path3" />
  <path
     d="M1190 260H60V120c0-33.1 26.9-60 60-60h1010c33.1 0 60 26.9 60 60z"
     fill="#e71f20"
     id="path4" />
  <path
     style="font-size:725.81px;font-family:B型交通标志专用字体;letter-spacing:0;text-anchor:middle;fill:#fbf9f9"
     d="m 352.09509,339.99888 q 48.62927,0 78.38748,23.22592 30.48402,22.50011 47.17765,66.04871 l -60.96804,18.14525 q -10.16134,-21.7743 -26.12916,-31.20983 -15.96782,-9.43553 -39.19374,-9.43553 -18.14525,0 -33.38726,7.98391 -14.5162,7.2581 -25.40335,24.67754 -10.16134,17.41944 -15.96782,46.45184 -5.80648,29.0324 -5.80648,71.12938 0,50.08089 5.08067,82.74234 5.80648,31.93564 15.96782,50.8067 10.16134,18.87106 25.40335,26.12916 15.24201,7.2581 34.11307,7.2581 18.87106,0 32.66145,-10.16134 14.5162,-10.16134 22.50011,-36.2905 3.62905,-11.61296 4.35486,-23.22592 1.45162,-11.61296 1.45162,-26.12916 h -55.16156 v -66.77452 h 123.3877 v 98.71016 q 0,26.85497 -8.70972,50.8067 -8.70972,23.22592 -25.40335,41.37117 -15.96782,17.41944 -39.19374,27.58078 -23.22592,10.16134 -52.25832,10.16134 -37.74212,0 -66.04871,-12.33877 -28.30659,-12.33877 -47.90346,-39.19374 -18.87106,-27.58078 -29.0324,-71.85519 -9.43553,-44.27441 -9.43553,-108.8715 0,-58.0648 10.88715,-99.43597 10.88715,-41.37117 30.48402,-67.50033 19.59687,-26.12916 47.17765,-38.46793 27.58078,-12.33877 60.96804,-12.33877 z m 325.88929,8.70972 V 782.74298 H 611.93567 V 432.17675 h -45.72603 v -45.00022 q 18.14525,-1.45162 35.56469,-10.88715 17.41944,-9.43553 27.58078,-27.58078 z m 240.96955,-10.88715 q 28.30659,0 52.25832,8.70972 23.95173,7.98391 40.64535,22.50011 16.6936,13.79039 26.1292,32.66145 9.4355,18.87106 9.4355,40.64536 0,18.87106 -4.3549,34.11307 -3.629,14.5162 -13.7903,29.0324 -10.1614,14.5162 -27.5808,31.20983 -17.41947,15.96782 -44.27444,37.74212 -30.48402,24.67754 -50.8067,45.00022 -20.32268,19.59687 -32.66145,37.01631 -12.33877,16.69363 -18.14525,31.20983 -5.80648,14.5162 -6.53229,27.58078 h 194.51713 v 67.50033 H 772.34031 q -0.72581,-39.91955 6.53229,-72.581 7.2581,-32.66145 23.22592,-60.96804 15.96782,-29.0324 40.64536,-54.43575 24.67754,-26.12916 58.79061,-51.53251 26.12916,-19.59687 41.37117,-33.38726 15.24201,-13.79039 23.22592,-23.95173 7.98391,-10.88715 10.16134,-19.59687 2.17743,-9.43553 2.17743,-20.32268 0,-19.59687 -17.41944,-30.48402 -17.41944,-11.61296 -42.82279,-11.61296 -26.12916,0 -49.35508,10.88715 -22.50011,10.88715 -37.01631,32.66145 l -55.88737,-25.40335 q 23.22592,-37.74212 58.79061,-60.96804 36.2905,-23.22592 84.19396,-23.22592 z"
     id="text4"
     aria-label="G12" />
  <path
     style="font-size:200px;font-family:A型交通标志专用字体;letter-spacing:50;text-anchor:middle;fill:#fbf9f9"
     d="m 264.99999,893.6 h -18.4 V 911 h -23.2 v -37 h 115 v 36.6 h -25 v -17 h -45.6 q 20.6,6 23,7.2 2.6,1 2.6,2.6 0,1.6 -3.2,5 -3,3.4 -7,9.4 h 54.4 V 939 h -65.8 q -8,14.4 -14.8,24 h 17 v -20.4 h 22.8 q 4.2,0 4.2,2 0,2 -1,4.6 -1,2.6 -1.4,13.8 h 34.4 v 20.6 h -34.4 v 14.2 h 44.2 v 21.4 h -44.2 v 34 h -24.6 v -34 h -50.8 v -10.6 q -36.6,16.2 -58.2,29.6 l -11.2,-26.2 q 12.4,-3.6 24.8,-7.8 v -44.4 h -19.4 v -22.6 h 19.4 v -38.4 h -21.2 V 876 h 63.8 v 22.8 h -19.2 v 38.4 h 17 v 22.6 h -17 v 35.8 q 11.6,-4.6 20,-8.4 0.6,5.6 1.8,10.6 h 50.2 v -14.2 h -15.8 q -21.4,0 -28.2,1.6 -3.2,-10.8 -4.4,-22.6 11,-3.8 21,-23.6 h -24.2 v -21.2 h 33.8 q 6.2,-14.4 8.8,-24.2 z m 230.8,-7.2 h 60.2 l -3,44.4 q -0.6,10.2 -4.4,15.4 -3.8,5.2 -14.4,7.8 -10.4,2.4 -31.6,2.4 0,-13.4 -7.2,-24.8 14.6,1.6 21,1.6 6.6,0 8.4,-1.8 2,-1.8 2.4,-6.8 l 1.2,-17.4 h -64 v 54.6 h 117.4 l -4.4,63.4 q -1.4,20.6 -14,25.4 -12.4,5 -34.2,5.2 -0.6,-15.8 -9,-27.6 15.8,2.2 21.8,2.2 6,0 7.8,-1.8 1.8,-1.8 2,-6.4 l 2.4,-38.2 h -115.2 v -97.6 h 31.6 q 3,-10.6 4.4,-21.8 20.4,2.6 25,3 4.6,0.4 4.6,2.4 0,2 -3,5.8 -2.8,3.6 -5.8,10.6 z m 45,133.2 h -127.6 V 998 h 127.6 z m 196.2,-137 q -1.6,-8.6 -3.4,-15.2 l 31.4,-2.8 q 2,10.4 2.6,18 h 68.2 v 20.8 h -172.2 v -20.8 z m 70.8,72.2 h -113 v -45.4 h 113 z m -27.8,-17.2 v -10.4 h -59.6 v 10.4 z m -47.6,95.8 v 6.6 h -21.8 v -52.6 h 78.6 v 41.2 q 7,1 10,1 3.2,0 4,-1.4 0.8,-1.2 0.8,-5 v -42 h -107.4 v 70.8 h -24.6 v -91 h 157.4 v 64.6 q 0,9.8 -3,15.4 -2.8,5.6 -10.6,8.6 -7.8,3 -23,4 -0.2,-10 -3.6,-17.4 v 3 h -23 v -5.8 z m 33.8,-16.6 V 1005 h -33.8 v 11.8 z M 1013.6,904.8 H 965.59999 V 884.2 H 1013.6 v -16.6 h 21.8 q 4.8,0 4.8,2.6 0,1.2 -1.4,3.6 -1.2,2.4 -1.2,10.4 h 49.2 v 20.6 h -49.4 V 916 h 40.6 v 53.4 h -23 q 15.6,13 34,30.8 l -20,15.6 q -13,-16.6 -31.6,-30.8 v 34.4 h -23.8 v -36 q -13.2,18.2 -35.40001,33.4 -7.8,-8.2 -18.8,-16.8 15,-8 22.8,-14.2 8,-6.4 14.6,-16.4 h -23 V 916 H 1013.6 Z m 0,45.8 v -15.4 h -17.00001 v 15.4 z m 23.8,-15.4 v 15.4 h 17.2 v -15.4 z m 0,34.2 v 13.2 l 15.6,-13.2 z m -72.80001,-61 -24.6,11.2 q -8,-18.8 -22,-36.4 l 23.6,-12.6 q 15.2,22.6 23,37.8 z M 1097.8,1020.8 q -4.4,12 -6.2,25.8 -26.8,1 -49,1 -48.20001,0 -64.20001,-3.6 -15.8,-3.4 -22.6,-9.6 -4.4,-4 -6.6,-4 -2,0 -4.8,2.4 -2.8,2.4 -9.4,8.8 -6.6,6.4 -9.4,11 -11.8,-12.2 -20.6,-20.8 12.8,-10 19,-13.6 6.4,-3.6 7.6,-5.6 1.4,-2.2 1.4,-7.8 v -53.4 h -23.2 v -22.2 h 47.8 v 71.6 q 0,6.6 5.2,11.8 5.2,5 12.2,7.4 7.2,2.4 22.8,3.6 15.80001,1.2 43.60001,1.2 28,0 56.4,-4 z"
     id="text5"
     aria-label="珲乌高速" />
  <path
     style="font-size:100px;font-family:A型交通标志专用字体;letter-spacing:100;text-anchor:middle;fill:#fbf9f9"
     d="m 298.6,202.1 v 5.2 H 286.2 V 117.1 H 366 v 89.4 h -12.7 v -4.4 z m 54.7,-10.6 v -63.6 h -54.7 v 63.6 z m -34.7,-47.9 h -17.2 v -10 h 48.3 v 10 h -18.9 v 8.6 h 17 v 10 h -6.2 q 3.3,4.9 6.4,10.2 l -6.7,2.8 h 10.2 v 10.3 h -51.2 v -10.3 h 18.3 v -13 h -15.3 v -10 h 15.3 z m 21.9,18.6 h -9.7 v 13 h 6.4 q -2.1,-4 -5.4,-8.5 z m 178,-40.5 q -0.3,-3.4 -1.7,-8 l 15.9,-1.7 q 0.7,4.8 0.7,9.7 h 34.5 V 142 H 554.7 V 131.7 H 495.9 V 142 h -12.3 v -20.3 z m -4,24.7 h -16.1 v -9.6 h 53.4 v 9.6 h -19.7 q -3.3,2.6 -7.1,5.2 5.8,5.3 8.9,12 9,-4.6 18.4,-13.6 8.3,5.9 9.6,7.1 1.4,1.2 1.4,2.1 0,0.8 -2.5,1.4 -2.4,0.6 -11.2,5.4 3.8,15.6 20.4,26.1 -5.9,3.8 -10.9,8.9 -14,-11.3 -18.5,-30 -1.2,0.7 -3.5,1.9 1.8,8.6 1.8,15.3 0,10.3 -5.3,14.6 -5.2,4.4 -18.2,4.4 -0.6,-6.8 -4.4,-12.3 3,0.1 5.2,0.1 6.5,0 8.5,-1.2 2,-1.2 2,-3.9 0,-2.7 -0.4,-7.9 -15.4,12.6 -38.1,21.6 -2.5,-6.2 -7.7,-9.6 11.3,-3 23.3,-9.4 12.1,-6.4 20.3,-13.7 -0.6,-2.2 -1.2,-3.5 -11.6,8.8 -31.8,17.3 -3,-4.8 -7.5,-8.7 19.3,-4.7 33.9,-16.4 -0.8,-1 -2.3,-2.1 -14.4,8.1 -27,11.8 -3.2,-5.5 -6.7,-9.8 22.4,-4.9 33,-13.1 z m 204.1,-25.1 q -0.8,-4.3 -1.7,-7.6 l 15.7,-1.4 q 1,5.2 1.3,9 H 768 v 10.4 H 681.9 V 121.3 Z M 754,157.4 H 697.5 V 134.7 H 754 Z m -13.9,-8.6 v -5.2 h -29.8 v 5.2 z m -23.8,47.9 v 3.3 h -10.9 v -26.3 h 39.3 v 20.6 q 3.5,0.5 5,0.5 1.6,0 2,-0.7 0.4,-0.6 0.4,-2.5 v -21 H 698.4 V 206 h -12.3 v -45.5 h 78.7 v 32.3 q 0,4.9 -1.5,7.7 -1.4,2.8 -5.3,4.3 -3.9,1.5 -11.5,2 -0.1,-5 -1.8,-8.7 v 1.5 h -11.5 v -2.9 z m 16.9,-8.3 v -5.9 h -16.9 v 5.9 z m 198.7,-56 h -24 v -10.3 h 24 v -8.3 h 10.9 q 2.4,0 2.4,1.3 0,0.6 -0.7,1.8 -0.6,1.2 -0.6,5.2 h 24.6 v 10.3 h -24.7 v 5.6 h 20.3 v 26.7 h -11.5 q 7.8,6.5 17,15.4 l -10,7.8 q -6.5,-8.3 -15.8,-15.4 v 17.2 h -11.9 v -18 q -6.6,9.1 -17.7,16.7 -3.9,-4.1 -9.4,-8.4 7.5,-4 11.4,-7.1 4,-3.2 7.3,-8.2 H 912 V 138 h 19.9 z m 0,22.9 v -7.7 h -8.5 v 7.7 z m 11.9,-7.7 v 7.7 h 8.6 v -7.7 z m 0,17.1 v 6.6 l 7.8,-6.6 z m -36.4,-30.5 -12.3,5.6 q -4,-9.4 -11,-18.2 l 11.8,-6.3 q 7.6,11.3 11.5,18.9 z m 66.6,56.2 q -2.2,6 -3.1,12.9 -13.4,0.5 -24.5,0.5 -24.1,0 -32.1,-1.8 -7.9,-1.7 -11.3,-4.8 -2.2,-2 -3.3,-2 -1,0 -2.4,1.2 -1.4,1.2 -4.7,4.4 -3.3,3.2 -4.7,5.5 -5.9,-6.1 -10.3,-10.4 6.4,-5 9.5,-6.8 3.2,-1.8 3.8,-2.8 0.7,-1.1 0.7,-3.9 V 155.7 H 880 v -11.1 h 23.9 v 35.8 q 0,3.3 2.6,5.9 2.6,2.5 6.1,3.7 3.6,1.2 11.4,1.8 7.9,0.6 21.8,0.6 14,0 28.2,-2 z"
     id="text6"
     aria-label="国家高速" />
</svg>
