<?xml version="1.0" encoding="UTF-8" standalone="no"?>
<svg
   viewBox="0 0 1250 1000"
   width="625"
   height="500"
   version="1.1"
   id="svg4"
   sodipodi:docname="China Expwy G10 sign no name.svg"
   xmlns:inkscape="http://www.inkscape.org/namespaces/inkscape"
   xmlns:sodipodi="http://sodipodi.sourceforge.net/DTD/sodipodi-0.dtd"
   xmlns="http://www.w3.org/2000/svg"
   xmlns:svg="http://www.w3.org/2000/svg">
  <defs
     id="defs4" />
  <sodipodi:namedview
     id="namedview4"
     pagecolor="#ffffff"
     bordercolor="#000000"
     borderopacity="0.25"
     inkscape:showpageshadow="2"
     inkscape:pageopacity="0.0"
     inkscape:pagecheckerboard="0"
     inkscape:deskcolor="#d1d1d1" />
  <path
     d="M1130 1000H120C53.7 1000 0 946.3 0 880V120C0 53.7 53.7 0 120 0h1010c66.3 0 120 53.7 120 120v760c0 66.3-53.7 120-120 120z"
     fill="#fff"
     id="path1" />
  <path
     d="M1130 970H120c-49.7 0-90-40.3-90-90V230h1190v650c0 49.7-40.3 90-90 90z"
     fill="#08963b"
     id="path2" />
  <path
     d="M1220 230H30V120c0-49.7 40.3-90 90-90h1010c49.7 0 90 40.3 90 90z"
     fill="#e71f20"
     id="path3" />
  <path
     style="font-size:725.81px;font-family:B型交通标志专用字体;letter-spacing:0;text-anchor:middle;fill:#fbf9f9"
     d="m 341.57039,369.99888 q 48.62927,0 78.38748,23.22592 30.48402,22.50011 47.17765,66.04871 l -60.96804,18.14525 q -10.16134,-21.7743 -26.12916,-31.20983 -15.96782,-9.43553 -39.19374,-9.43553 -18.14525,0 -33.38726,7.98391 -14.5162,7.2581 -25.40335,24.67754 -10.16134,17.41944 -15.96782,46.45184 -5.80648,29.0324 -5.80648,71.12938 0,50.08089 5.08067,82.74234 5.80648,31.93564 15.96782,50.8067 10.16134,18.87106 25.40335,26.12916 15.24201,7.2581 34.11307,7.2581 18.87106,0 32.66145,-10.16134 14.5162,-10.16134 22.50011,-36.2905 3.62905,-11.61296 4.35486,-23.22592 1.45162,-11.61296 1.45162,-26.12916 h -55.16156 v -66.77452 h 123.3877 v 98.71016 q 0,26.85497 -8.70972,50.8067 -8.70972,23.22592 -25.40335,41.37117 -15.96782,17.41944 -39.19374,27.58078 -23.22592,10.16134 -52.25832,10.16134 -37.74212,0 -66.04871,-12.33877 -28.30659,-12.33877 -47.90346,-39.19374 -18.87106,-27.58078 -29.0324,-71.85519 -9.43553,-44.27441 -9.43553,-108.8715 0,-58.0648 10.88715,-99.43597 10.88715,-41.37117 30.48402,-67.50033 19.59687,-26.12916 47.17765,-38.46793 27.58078,-12.33877 60.96804,-12.33877 z m 325.88929,8.70972 V 812.74298 H 601.41097 V 462.17675 h -45.72603 v -45.00022 q 18.14525,-1.45162 35.56469,-10.88715 17.41944,-9.43553 27.58078,-27.58078 z m 243.8728,-10.16134 q 34.83888,0 61.69385,12.33877 27.58077,12.33877 45.72607,39.91955 18.871,26.85497 28.3065,70.40357 10.1614,42.82279 10.1614,103.79083 0,60.96804 -10.1614,103.79083 -10.1613,42.82279 -29.7582,69.67776 -18.87102,26.85497 -46.4518,39.19374 -26.85497,12.33877 -60.24223,12.33877 -31.93564,0 -59.51642,-11.61296 -26.85497,-12.33877 -46.45184,-38.46793 -19.59687,-26.85497 -31.20983,-68.95195 -10.88715,-42.82279 -10.88715,-103.79083 0,-60.96804 10.16134,-103.79083 10.88715,-43.5486 30.48402,-71.12938 19.59687,-27.58078 46.45184,-40.64536 27.58078,-13.06458 61.69385,-13.06458 z m 0,68.22614 q -37.74212,0 -60.24223,37.01631 -21.7743,37.01631 -21.7743,121.21027 0,42.82279 5.80648,73.30681 6.53229,29.75821 17.41944,48.62927 10.88715,18.87106 25.40335,27.58078 15.24201,8.70972 32.66145,8.70972 18.87106,0 33.38726,-7.98391 14.5162,-7.98391 24.67754,-26.85497 10.16134,-18.87106 15.24201,-49.35508 5.08067,-31.20983 5.08067,-76.21005 0,-43.5486 -5.80648,-73.30681 -5.08067,-30.48402 -15.96782,-48.62927 -10.16134,-18.14525 -24.67754,-26.12916 -13.79039,-7.98391 -31.20983,-7.98391 z"
     id="text3"
     aria-label="G10" />
  <path
     style="font-size:100px;font-family:A型交通标志专用字体;letter-spacing:100;text-anchor:middle;fill:#fbf9f9"
     d="m 348.6,172.1 v 5.2 H 336.2 V 87.1 H 416 v 89.4 h -12.7 v -4.4 z m 54.7,-10.6 V 97.9 h -54.7 v 63.6 z m -34.7,-47.9 h -17.2 v -10 h 48.3 v 10 h -18.9 v 8.6 h 17 v 10 h -6.2 q 3.3,4.9 6.4,10.2 l -6.7,2.8 h 10.2 v 10.3 h -51.2 v -10.3 h 18.3 v -13 h -15.3 v -10 h 15.3 z m 21.9,18.6 h -9.7 v 13 h 6.4 q -2.1,-4 -5.4,-8.5 z m 178,-40.5 q -0.3,-3.4 -1.7,-8 L 582.7,82 q 0.7,4.8 0.7,9.7 h 34.5 V 112 H 604.7 V 101.7 H 545.9 V 112 H 533.6 V 91.7 Z m -4,24.7 h -16.1 v -9.6 h 53.4 v 9.6 h -19.7 q -3.3,2.6 -7.1,5.2 5.8,5.3 8.9,12 9,-4.6 18.4,-13.6 8.3,5.9 9.6,7.1 1.4,1.2 1.4,2.1 0,0.8 -2.5,1.4 -2.4,0.6 -11.2,5.4 3.8,15.6 20.4,26.1 -5.9,3.8 -10.9,8.9 -14,-11.3 -18.5,-30 -1.2,0.7 -3.5,1.9 1.8,8.6 1.8,15.3 0,10.3 -5.3,14.6 -5.2,4.4 -18.2,4.4 -0.6,-6.8 -4.4,-12.3 3,0.1 5.2,0.1 6.5,0 8.5,-1.2 2,-1.2 2,-3.9 0,-2.7 -0.4,-7.9 -15.4,12.6 -38.1,21.6 -2.5,-6.2 -7.7,-9.6 11.3,-3 23.3,-9.4 12.1,-6.4 20.3,-13.7 -0.6,-2.2 -1.2,-3.5 -11.6,8.8 -31.8,17.3 -3,-4.8 -7.5,-8.7 19.3,-4.7 33.9,-16.4 -0.8,-1 -2.3,-2.1 -14.4,8.1 -27,11.8 -3.2,-5.5 -6.7,-9.8 22.4,-4.9 33,-13.1 z M 768.6,91.3 q -0.8,-4.3 -1.7,-7.6 l 15.7,-1.4 q 1,5.2 1.3,9 H 818 v 10.4 H 731.9 V 91.3 Z M 804,127.4 H 747.5 V 104.7 H 804 Z m -13.9,-8.6 v -5.2 h -29.8 v 5.2 z m -23.8,47.9 v 3.3 h -10.9 v -26.3 h 39.3 v 20.6 q 3.5,0.5 5,0.5 1.6,0 2,-0.7 0.4,-0.6 0.4,-2.5 v -21 H 748.4 V 176 h -12.3 v -45.5 h 78.7 v 32.3 q 0,4.9 -1.5,7.7 -1.4,2.8 -5.3,4.3 -3.9,1.5 -11.5,2 -0.1,-5 -1.8,-8.7 v 1.5 h -11.5 v -2.9 z m 16.9,-8.3 v -5.9 h -16.9 v 5.9 z m 198.7,-56 h -24 V 92.1 h 24 v -8.3 h 10.9 q 2.4,0 2.4,1.3 0,0.6 -0.7,1.8 -0.6,1.2 -0.6,5.2 h 24.6 v 10.3 h -24.7 v 5.6 h 20.3 v 26.7 h -11.5 q 7.8,6.5 17,15.4 l -10,7.8 q -6.5,-8.3 -15.8,-15.4 v 17.2 h -11.9 v -18 q -6.6,9.1 -17.7,16.7 -3.9,-4.1 -9.4,-8.4 7.5,-4 11.4,-7.1 4,-3.2 7.3,-8.2 H 962 V 108 h 19.9 z m 0,22.9 v -7.7 h -8.5 v 7.7 z m 11.9,-7.7 v 7.7 h 8.6 v -7.7 z m 0,17.1 v 6.6 l 7.8,-6.6 z m -36.4,-30.5 -12.3,5.6 q -4,-9.4 -11,-18.2 l 11.8,-6.3 q 7.6,11.3 11.5,18.9 z m 66.6,56.2 q -2.2,6 -3.1,12.9 -13.4,0.5 -24.5,0.5 -24.1,0 -32.1,-1.8 -7.9,-1.7 -11.3,-4.8 -2.2,-2 -3.3,-2 -1,0 -2.4,1.2 -1.4,1.2 -4.7,4.4 -3.3,3.2 -4.7,5.5 -5.9,-6.1 -10.3,-10.4 6.4,-5 9.5,-6.8 3.2,-1.8 3.8,-2.8 0.7,-1.1 0.7,-3.9 V 125.7 H 930 v -11.1 h 23.9 v 35.8 q 0,3.3 2.6,5.9 2.6,2.5 6.1,3.7 3.6,1.2 11.4,1.8 7.9,0.6 21.8,0.6 14,0 28.2,-2 z"
     id="text4"
     aria-label="国家高速" />
</svg>
