<?xml version="1.0" encoding="UTF-8" standalone="no"?>
<svg
   viewBox="0 0 1700 1200"
   width="850"
   height="600"
   version="1.1"
   id="svg7"
   sodipodi:docname="Guangdong Expwy S3211 sign with name.svg"
   xmlns:inkscape="http://www.inkscape.org/namespaces/inkscape"
   xmlns:sodipodi="http://sodipodi.sourceforge.net/DTD/sodipodi-0.dtd"
   xmlns="http://www.w3.org/2000/svg"
   xmlns:svg="http://www.w3.org/2000/svg">
  <defs
     id="defs7" />
  <sodipodi:namedview
     id="namedview7"
     pagecolor="#ffffff"
     bordercolor="#000000"
     borderopacity="0.25"
     inkscape:showpageshadow="2"
     inkscape:pageopacity="0.0"
     inkscape:pagecheckerboard="0"
     inkscape:deskcolor="#d1d1d1" />
  <path
     d="M1580 1200H120c-66.3 0-120-53.7-120-120V120C0 53.7 53.7 0 120 0h1460c66.3 0 120 53.7 120 120v960c0 66.3-53.7 120-120 120z"
     fill="#08963b"
     id="path1" />
  <path
     d="M1580 1170H120c-49.7 0-90-40.3-90-90V120c0-49.7 40.3-90 90-90h1460c49.7 0 90 40.3 90 90v960c0 49.7-40.3 90-90 90z"
     fill="#fff"
     id="path2" />
  <path
     d="M1580 1140H120c-33.1 0-60-26.9-60-60V260h1580v820c0 33.1-26.9 60-60 60z"
     fill="#08963b"
     id="path3" />
  <path
     d="M1640 260H60V120c0-33.1 26.9-60 60-60h1460c33.1 0 60 26.9 60 60z"
     fill="#f6ec0a"
     id="path4" />
  <g
     id="text5"
     style="font-weight:bold;font-size:722.315px;font-family:'Source Han Sans';letter-spacing:0;fill:#fbf9f9"
     aria-label="S3211">
    <path
       style="font-weight:normal;font-family:B型交通标志专用字体;text-anchor:middle"
       d="m 388.64187,530.69008 q 50.56205,21.66945 76.56539,59.22983 26.00334,36.83806 26.00334,82.34391 0,54.89594 -34.67112,86.6778 -33.94881,31.05955 -99.67947,31.05955 -103.29105,0 -143.01837,-94.62327 l 52.00668,-27.44797 q 15.16861,30.33723 36.11575,42.61658 20.94713,11.55704 52.72899,13.00167 31.78186,1.44463 50.56205,-10.83472 18.78019,-12.27936 18.78019,-39.72733 0,-12.27935 -2.88926,-22.39176 -2.88926,-10.83473 -12.27935,-21.66945 -8.66778,-10.83473 -25.28103,-21.66945 -16.61324,-11.55704 -43.3389,-25.28103 -59.22983,-29.61491 -83.78854,-60.67446 -24.55871,-31.78186 -24.55871,-74.39844 0,-23.11408 10.11241,-42.61659 10.11241,-19.5025 26.72566,-33.22649 17.33556,-14.4463 40.44964,-21.66945 23.11408,-7.94546 49.11742,-7.94546 41.89427,0 69.34224,22.39176 28.17028,21.66945 52.00668,59.22983 l -51.28437,28.17029 q -13.00167,-20.94714 -30.33723,-31.78186 -16.61324,-11.55704 -40.44964,-11.55704 -33.22649,0 -46.22816,10.11241 -13.00167,9.39009 -13.00167,30.33723 0,8.66778 2.88926,18.05787 3.61158,8.66778 13.00167,18.78019 9.3901,10.11241 26.72566,21.66945 18.05787,10.83473 47.67279,23.8364 z M 687.6805,339.99892 q 28.8926,0 52.00668,7.94546 23.11408,7.94547 39.00501,22.39177 15.89093,14.4463 24.55871,34.67112 8.66778,19.5025 8.66778,43.3389 0,34.67112 -6.50083,56.34057 -6.50084,20.94713 -20.94714,39.72732 23.11408,17.33556 33.22649,41.17196 10.83473,23.83639 10.83473,63.56372 0,72.95381 -34.67112,106.90262 -34.67112,33.94881 -100.40179,33.94881 -52.00668,0 -87.40011,-23.8364 -34.67112,-23.83639 -54.17363,-63.56372 l 56.34057,-22.39177 q 18.78019,23.11408 37.56038,33.22649 19.50251,10.11241 46.22816,10.11241 34.67112,0 52.00668,-15.89093 18.05788,-15.89093 18.05788,-53.45131 0,-41.17195 -12.27936,-57.06288 -11.55704,-16.61325 -38.28269,-18.05788 h -37.56038 v -67.17529 h 35.39343 q 18.78019,-2.88926 27.44797,-14.4463 8.66778,-12.27936 8.66778,-41.17196 0,-25.28102 -16.61324,-36.83806 -16.61325,-12.27936 -41.89427,-12.27936 -23.8364,0.72232 -41.17196,9.3901 -16.61324,8.66778 -28.8926,24.55871 l -53.45131,-25.28103 q 9.3901,-15.89093 21.66945,-29.61491 13.00167,-13.72399 28.17029,-23.8364 15.16861,-10.11241 33.22649,-15.89093 18.78019,-6.50083 41.17195,-6.50083 z m 367.659,0 q 28.1702,0 52.0066,8.66778 23.8364,7.94546 40.4497,22.39176 16.6132,13.72399 26.0033,32.50418 9.3901,18.78019 9.3901,40.44964 0,18.78019 -4.3339,33.9488 -3.6116,14.4463 -13.724,28.8926 -10.1124,14.4463 -27.4479,31.05955 -17.3356,15.89093 -44.0613,37.56038 -30.3372,24.55871 -50.562,44.78353 -20.2248,19.5025 -32.5042,36.83806 -12.27933,16.61325 -18.05785,31.05955 -5.77852,14.4463 -6.50084,27.44797 h 193.58039 v 67.1753 H 909.43182 q -0.72231,-39.72733 6.50084,-72.23151 7.22315,-32.50417 23.11408,-60.67446 15.89093,-28.8926 40.44964,-54.17362 24.55872,-26.00334 58.50752,-51.28437 26.0033,-19.5025 41.1719,-33.22649 15.1687,-13.72398 23.1141,-23.83639 7.9455,-10.83473 10.1124,-19.50251 2.167,-9.39009 2.167,-20.22482 0,-19.5025 -17.3356,-30.33723 -17.3355,-11.55704 -42.6166,-11.55704 -26.0033,0 -49.1174,10.83473 -22.39175,10.83472 -36.83805,32.50417 L 913.0434,423.78746 q 23.11408,-37.56038 58.50751,-60.67446 36.11579,-23.11408 83.78859,-23.11408 z"
       id="path7" />
    <path
       style="font-weight:normal;font-size:475.036px;font-family:B型交通标志专用字体;text-anchor:middle"
       d="m 1326.2461,498.70648 v 284.07154 h -43.2283 v -229.4424 h -29.9273 v -29.45223 q 11.8759,-0.95007 23.2768,-7.12554 11.4009,-6.17547 18.0514,-18.05137 z m 137.7609,0 v 284.07154 h -43.2283 v -229.4424 h -29.9273 v -29.45223 q 11.8759,-0.95007 23.2768,-7.12554 11.4008,-6.17547 18.0513,-18.05137 z"
       id="path8" />
  </g>
  <path
     style="font-size:100px;font-family:A型交通标志专用字体;letter-spacing:191.199;text-anchor:middle;fill:#535353"
     d="m 547.70099,118.7 q 0.8,-2.8 1.3,-6.8 l 9.4,0.6 q 4.3,0.2 4.8,0.5 0.5,0.2 0.5,0.8 0,0.5 -0.4,1.2 l -2.3,3.7 h 34.1 v 48.5 h -71.2 v -48.5 z m -5.6,20.1 q -1.1,-3.3 -4,-8 l 9.8,-2.3 q 1.7,3.4 3.1,8.3 l -7.7,2 h 10.2 v -10.1 h 9.6 q 2.6,0 2.6,0.8 0,0.8 -0.5,2 -0.4,1.2 -0.5,2.3 -0.1,1 -0.1,5 h 8.5 l -5.8,-1.7 q 2.5,-4 4.5,-8.7 7.8,2.2 8.4,2.6 0.7,0.3 0.7,0.8 0,0.5 -0.8,1 -0.7,0.5 -4.4,6 h 6.2 v 8.3 h -8.9 q 4.4,2.7 8.6,6 l -5.2,5.4 h 6.4 v -30.3 h -47.8 v 23.5 q 5.6,-1.7 10.2,-4.6 h -9.2 v -8.3 z m 26.6,8.3 h -4.1 v 3.9 z m -15.2,4.1 q -4.9,4.3 -10.7,7.3 h 10.7 z m 21.3,7.3 q -4.9,-3.8 -10.2,-7.2 v 7.2 z m -34.5,0 q -3,-3.8 -5.3,-6 v 6 z m -3.2,21.1 h -24.4 V 170 h 92.6 v 9.6 h -54.4 l -1.2,3.2 h 42.3 l -1.3,9.4 q -1,6.8 -3,9.8 -1.9,3 -6.8,4.2 -4.9,1.3 -15.8,1.7 -0.4,-6 -3.6,-13 8.4,1.1 10.9,1.1 2.5,0 3.3,-0.8 0.9,-0.7 1,-3.3 h -44.2 z M 843.6,121.3 q -0.8,-4.3 -1.7,-7.6 l 15.7,-1.4 q 1,5.2 1.3,9 H 893 v 10.4 H 806.9 V 121.3 Z M 879,157.4 H 822.5 V 134.7 H 879 Z m -13.9,-8.6 v -5.2 h -29.8 v 5.2 z m -23.8,47.9 v 3.3 h -10.9 v -26.3 h 39.3 v 20.6 q 3.5,0.5 5,0.5 1.6,0 2,-0.7 0.4,-0.6 0.4,-2.5 v -21 H 823.4 V 206 h -12.3 v -45.5 h 78.7 v 32.3 q 0,4.9 -1.5,7.7 -1.4,2.8 -5.3,4.3 -3.9,1.5 -11.5,2 -0.1,-5 -1.8,-8.7 v 1.5 h -11.5 v -2.9 z m 16.9,-8.3 v -5.9 h -16.9 v 5.9 z m 289.899,-56 h -24 v -10.3 h 24 v -8.3 h 10.9 q 2.4,0 2.4,1.3 0,0.6 -0.7,1.8 -0.6,1.2 -0.6,5.2 h 24.6 v 10.3 h -24.7 v 5.6 h 20.3 v 26.7 h -11.5 q 7.8,6.5 17,15.4 l -10,7.8 q -6.5,-8.3 -15.8,-15.4 v 17.2 h -11.9 v -18 q -6.6,9.1 -17.7,16.7 -3.9,-4.1 -9.4,-8.4 7.5,-4 11.4,-7.1 4,-3.2 7.3,-8.2 h -11.5 V 138 h 19.9 z m 0,22.9 v -7.7 h -8.5 v 7.7 z m 11.9,-7.7 v 7.7 h 8.6 v -7.7 z m 0,17.1 v 6.6 l 7.8,-6.6 z m -36.4,-30.5 -12.3,5.6 q -4,-9.4 -11,-18.2 l 11.8,-6.3 q 7.6,11.3 11.5,18.9 z m 66.6,56.2 q -2.2,6 -3.1,12.9 -13.4,0.5 -24.5,0.5 -24.1,0 -32.1,-1.8 -7.9,-1.7 -11.3,-4.8 -2.2,-2 -3.3,-2 -1,0 -2.4,1.2 -1.4,1.2 -4.7,4.4 -3.3,3.2 -4.7,5.5 -5.9,-6.1 -10.3,-10.4 6.4,-5 9.5,-6.8 3.2,-1.8 3.8,-2.8 0.7,-1.1 0.7,-3.9 v -26.7 h -11.6 v -11.1 h 23.9 v 35.8 q 0,3.3 2.6,5.9 2.6,2.5 6.1,3.7 3.6,1.2 11.4,1.8 7.9,0.6 21.8,0.6 14,0 28.2,-2 z"
     id="text6"
     aria-label="粤高速" />
  <path
     style="font-size:200px;font-family:A型交通标志专用字体;letter-spacing:0;text-anchor:middle;fill:#fbf9f9"
     d="M 357.4,965.6 H 323.6 V 945.2 H 370 v -25.6 h -17.4 q -2.6,9.4 -7.4,21 -9.2,-3 -21.4,-5.4 10.4,-22.8 14.6,-59.2 l 22.6,3.8 q 4,0.8 4,2.4 0,1.6 -2.4,4.6 -2.2,2.8 -4.8,11.8 H 370 V 866 h 20.2 q 3.4,0 4.6,0.6 1.2,0.4 1.2,1.8 0,1.2 -0.8,3.6 -0.8,2.2 -1.4,7.8 -0.6,5.6 -0.6,9.2 v 9.6 H 432 v 21 h -38.8 v 25.6 h 46.4 v 20.4 h -38.4 q 14,36 46.4,57.6 -11,7.4 -21,18.4 -22.8,-21.8 -33.4,-48.6 v 60.4 H 370 v -65 q -14.8,31.8 -42.4,54.4 -10.2,-9 -20.8,-15.2 11.2,-6.8 20.2,-16 -30.8,12.6 -62.8,27 l -10.6,-25.2 q 13.4,-3 28,-7.2 v -42.4 h -23 v -21.6 h 23 v -37 h -24 v -22 h 68.2 v 22 H 304 v 37 h 16.2 v 21.6 H 304 v 35.4 q 12,-4.2 22.4,-8.6 0.2,10 3,18.8 18,-19.2 28,-43.8 z M 555.8,884 h 83.6 v 21.2 H 544 l -6.4,10.6 H 628 l -2.2,44.2 h 18.6 v 19.4 h -19.6 l -1.4,26.8 h 15 v 20.6 h -16.2 q -1.2,16.4 -9.8,21.6 -8.4,5.2 -30.6,6.8 -2,-14.4 -8.4,-23.2 8.8,1.2 13.8,1.2 5,0 7.2,-1.4 2.4,-1.4 3,-5 h -81 L 521,979.4 H 506.2 V 960 h 16.6 l 2.6,-26.2 q -4.8,6.4 -8.8,10.4 -8.8,-7.4 -19.4,-12.2 28,-29.6 36,-67.4 12.4,2.8 20.2,5.2 8,2.2 8.8,3 1,0.8 1,2.4 0,1.6 -2.2,3 -2,1.4 -5.2,5.8 z m 20.6,76 h 25 l 1.4,-23.8 h -24.6 q 6.2,8 12,18 z m -29.4,0 h 20.4 q -4,-7.2 -11.4,-16.6 l 15.8,-7.2 h -22.6 z m 22.6,19.4 h -24.4 l -2.6,26.8 H 567 q -6.6,-12.6 -13.4,-20 z m 30.8,0 h -24.6 q 7.6,10 13.2,21 l -15.2,5.8 h 25 z M 517.4,897 497,913.8 Q 482,898 467.8,887 l 20,-17.4 q 15,13 29.6,27.4 z m -10,44.8 -19,19.2 Q 477,951 456,937.2 l 17.4,-19.8 q 22,14.8 34,24.4 z m 2,41.2 q -18.2,36 -31.2,67.8 -9.4,-5.8 -24.2,-18.2 18.2,-22.4 36.4,-65.4 7.2,7.6 19,15.8 z m 232,-14.8 Q 742,959 742,948 v -69.8 h 72 l -4.8,138 q -0.2,4 0.8,4.8 1,1 4.4,1 3.4,0 5,-1.4 1.6,-1.4 2.2,-6.2 0.8,-5 0.8,-15.6 11.8,6.8 24.4,8.6 -2.8,16.4 -6.2,25 -3.2,8.8 -7.6,12 -4.2,3.4 -11,3.4 h -16.4 q -11.6,0 -16.2,-5.2 -4.6,-5 -4.2,-18.4 l 4,-124 H 765 v 54 q 0,34.4 -8.2,57.4 -8.2,23 -25.4,41.6 -8,-6.4 -19.2,-12.4 v 11.2 h -22.8 v -81.6 q -8.8,26.8 -18.8,40.2 -6.8,-9.4 -17,-18.2 10.6,-14.2 17,-28.4 6.6,-14.2 12.6,-36.2 h -22.4 v -22.6 h 28.6 V 867 h 21 q 4.4,0 4.4,2.6 0,1.2 -1.4,3.8 -1.2,2.6 -1.2,11 v 20.8 h 24.2 v 22.6 h -24.2 v 14.8 l 13.2,-6.2 q 8.4,16.2 16,31.8 z m -29.2,68.4 q 13.8,-14 20.4,-28.6 6.6,-14.8 8.4,-35.2 l -18.4,8.6 q -3.2,-10 -10.4,-25 z M 882.6,938 h -24.4 v -23.8 h 24.4 v -45.8 h 21.2 q 5,0 5,2.8 0,1.4 -1.2,5 -1.2,3.4 -1.2,13.2 v 24.8 h 20.8 V 938 h -20.8 v 43.6 q 19.8,-9 21.4,-9.8 1.6,10 5.6,21 -49.4,23.4 -67.6,34.4 l -12.2,-25.6 q 13,-3.6 29,-10 z m 70.6,15.6 q -13,0.4 -21,1.8 -1.8,-10.4 -2.2,-23.4 25.2,-1 54.8,-32.6 H 932 V 877 h 102.6 q -25.4,31.4 -54.8,56.4 h 60.2 l -4.2,86.4 q -1,19.2 -12.6,24.8 -11.4,5.8 -30.8,6.4 -1.2,-13.2 -8.8,-25.2 8.4,0.6 14.8,0.6 6.6,0 9,-2.2 2.4,-2 2.8,-8.2 l 3.6,-62.6 h -6.4 q -2.6,35 -16.8,58 -14.2,23 -44.6,42.8 -6.6,-7.6 -21,-14.2 30.2,-17 43.6,-36.4 13.6,-19.6 16.8,-50.2 H 976 q -4,25 -16.8,43.6 -12.6,18.6 -37,35.2 -11.6,-9.8 -21,-14.6 45,-22.8 52,-64 z m 184,-71 q -1.6,-8.6 -3.4,-15.2 l 31.4,-2.8 q 2,10.4 2.6,18 h 68.2 v 20.8 h -172.2 v -20.8 z m 70.8,72.2 h -113 v -45.4 h 113 z m -27.8,-17.2 v -10.4 h -59.6 v 10.4 z m -47.6,95.8 v 6.6 h -21.8 v -52.6 h 78.6 v 41.2 q 7,1 10,1 3.2,0 4,-1.4 0.8,-1.2 0.8,-5 v -42 h -107.4 v 70.8 h -24.6 v -91 h 157.4 v 64.6 q 0,9.8 -3,15.4 -2.8,5.6 -10.6,8.6 -7.8,3 -23,4 -0.2,-10 -3.6,-17.4 v 3 h -23 v -5.8 z m 33.8,-16.6 V 1005 h -33.8 v 11.8 z m 197.4,-112 h -48 v -20.6 h 48 v -16.6 h 21.8 q 4.8,0 4.8,2.6 0,1.2 -1.4,3.6 -1.2,2.4 -1.2,10.4 h 49.2 v 20.6 h -49.4 V 916 h 40.6 v 53.4 h -23 q 15.6,13 34,30.8 l -20,15.6 q -13,-16.6 -31.6,-30.8 v 34.4 h -23.8 v -36 q -13.2,18.2 -35.4,33.4 -7.8,-8.2 -18.8,-16.8 15,-8 22.8,-14.2 8,-6.4 14.6,-16.4 h -23 V 916 h 39.8 z m 0,45.8 v -15.4 h -17 v 15.4 z m 23.8,-15.4 v 15.4 h 17.2 v -15.4 z m 0,34.2 v 13.2 l 15.6,-13.2 z m -72.8,-61 -24.6,11.2 q -8,-18.8 -22,-36.4 l 23.6,-12.6 q 15.2,22.6 23,37.8 z m 133.2,112.4 q -4.4,12 -6.2,25.8 -26.8,1 -49,1 -48.2,0 -64.2,-3.6 -15.8,-3.4 -22.6,-9.6 -4.4,-4 -6.6,-4 -2,0 -4.8,2.4 -2.8,2.4 -9.4,8.8 -6.6,6.4 -9.4,11 -11.8,-12.2 -20.6,-20.8 12.8,-10 19,-13.6 6.4,-3.6 7.6,-5.6 1.4,-2.2 1.4,-7.8 V 951.4 H 1260 v -22.2 h 47.8 v 71.6 q 0,6.6 5.2,11.8 5.2,5 12.2,7.4 7.2,2.4 22.8,3.6 15.8,1.2 43.6,1.2 28,0 56.4,-4 z"
     id="text7"
     aria-label="珠海机场高速" />
</svg>
