<?xml version="1.0" encoding="UTF-8" standalone="no"?>
<svg
   width="625"
   height="600"
   viewBox="0 0 1250 1200"
   version="1.1"
   id="svg6"
   sodipodi:docname="Guangdong Expwy S10 sign with name.svg"
   xmlns:inkscape="http://www.inkscape.org/namespaces/inkscape"
   xmlns:sodipodi="http://sodipodi.sourceforge.net/DTD/sodipodi-0.dtd"
   xmlns="http://www.w3.org/2000/svg"
   xmlns:svg="http://www.w3.org/2000/svg">
  <defs
     id="defs6" />
  <sodipodi:namedview
     id="namedview6"
     pagecolor="#ffffff"
     bordercolor="#000000"
     borderopacity="0.25"
     inkscape:showpageshadow="2"
     inkscape:pageopacity="0.0"
     inkscape:pagecheckerboard="0"
     inkscape:deskcolor="#d1d1d1" />
  <path
     d="M1130 1200H120c-66.3 0-120-53.7-120-120V120C0 53.7 53.7 0 120 0h1010c66.3 0 120 53.7 120 120v960c0 66.3-53.7 120-120 120z"
     fill="#08963b"
     id="path1" />
  <path
     d="M1130 1170H120c-49.7 0-90-40.3-90-90V120c0-49.7 40.3-90 90-90h1010c49.7 0 90 40.3 90 90v960c0 49.7-40.3 90-90 90z"
     fill="#fff"
     id="path2" />
  <path
     d="M1130 1140H120c-33.1 0-60-26.9-60-60V260h1130v820c0 33.1-26.9 60-60 60z"
     fill="#08963b"
     id="path3" />
  <path
     d="M1190 260H60V120c0-33.1 26.9-60 60-60h1010c33.1 0 60 26.9 60 60z"
     fill="#f6ec0a"
     id="path4" />
  <path
     style="font-size:724.642px;font-family:B型交通标志专用字体;letter-spacing:0;text-anchor:middle;fill:#fbf9f9"
     d="m 364.12826,529.85494 q 50.72494,21.73926 76.81206,59.42064 26.08711,36.95675 26.08711,82.60919 0,55.0728 -34.78282,86.95705 -34.05817,31.15961 -100.0006,31.15961 -103.62381,0 -143.47912,-94.92811 l 52.17423,-27.5364 q 15.21748,30.43497 36.2321,42.75388 21.01462,11.59427 52.89887,13.04356 31.88425,1.44928 50.72494,-10.86963 18.84069,-12.31892 18.84069,-39.85531 0,-12.31892 -2.89857,-22.46391 -2.89857,-10.86963 -12.31891,-21.73926 -8.69571,-10.86963 -25.36247,-21.73926 -16.66677,-11.59427 -43.47852,-25.36247 -59.42065,-29.71032 -84.05848,-60.86993 -24.63783,-31.88425 -24.63783,-74.63813 0,-23.18854 10.14499,-42.75388 10.14499,-19.56533 26.81175,-33.33353 17.39141,-14.49284 40.57996,-21.73926 23.18854,-7.97106 49.27566,-7.97106 42.02923,0 69.56563,22.4639 28.26104,21.73926 52.17423,59.42064 l -51.44959,28.26104 q -13.04355,-21.01462 -30.43496,-31.88425 -16.66677,-11.59427 -40.57996,-11.59427 -33.33353,0 -46.37709,10.14499 -13.04355,9.42035 -13.04355,30.43497 0,8.6957 2.89857,18.11605 3.62321,8.6957 13.04355,18.84069 9.42035,10.14499 26.81176,21.73926 18.11605,10.86963 47.82637,23.91319 z M 643.8403,349.41907 V 782.755 H 577.89787 V 432.7529 h -45.65245 v -44.9278 q 18.11605,-1.44928 35.50746,-10.86963 17.39141,-9.42035 27.5364,-27.5364 z m 243.48041,-10.14499 q 34.78282,0 61.59457,12.31892 27.5364,12.31891 45.65245,39.85531 18.84067,26.81175 28.26107,70.29028 10.145,42.75388 10.145,103.62381 0,60.86993 -10.145,103.62381 -10.145,42.75388 -29.71035,69.56563 -18.8407,26.81176 -46.37709,39.13067 -26.81176,12.31892 -60.14529,12.31892 -31.88425,0 -59.42065,-11.59428 -26.81175,-12.31891 -46.37709,-38.40602 -19.56533,-26.81176 -31.15961,-68.841 -10.86963,-42.75388 -10.86963,-103.62381 0,-60.86993 10.14499,-103.62381 10.86963,-43.47852 30.43497,-71.01492 19.56533,-27.53639 46.37709,-40.57995 27.53639,-13.04356 61.59457,-13.04356 z m 0,68.11635 q -37.68139,0 -60.14529,36.95675 -21.73926,36.95674 -21.73926,121.01522 0,42.75388 5.79714,73.18884 6.52177,29.71032 17.39141,48.55102 10.86963,18.84069 25.36247,27.53639 15.21748,8.69571 32.60889,8.69571 18.84069,0 33.33353,-7.97106 14.49284,-7.97107 24.63783,-26.81176 10.14499,-18.84069 15.21748,-49.27566 5.0725,-31.1596 5.0725,-76.08741 0,-43.47852 -5.79714,-73.18884 -5.07249,-30.43497 -15.94212,-48.55102 -10.14499,-18.11605 -24.63783,-26.08711 -13.7682,-7.97107 -31.15961,-7.97107 z"
     id="text4"
     aria-label="S10" />
  <path
     style="font-size:200px;font-family:A型交通标志专用字体;letter-spacing:50;text-anchor:middle;fill:#fbf9f9"
     d="m 286.8,877.4 24.2,-6.8 q 4.8,13.8 8.6,27.4 l -24.4,5.6 q -3.2,-14.4 -8.8,-25.6 -6,5 -13.4,26 h 69 v 20.8 h -28.8 v 15.8 H 338 v 20 h -24.8 v 15.8 H 338 v 20.8 h -24.8 v 20.6 h 31.2 v 20.6 h -72.8 v 14.2 H 249 v -21 l -14.8,5.2 q -2,-8 -3,-11.6 -33.6,9.4 -46.6,13.8 -4.6,-9.8 -8.2,-19.4 4.8,-1.2 9.2,-7.4 4.6,-6.2 13,-27.6 8.4,-21.6 13.6,-40.4 18,5.8 21.6,6.8 3.6,1 3.6,3.6 0,2 -3.4,5.2 -3.4,3.2 -6.4,10 l -4.8,11 13.8,-4.8 q 6.6,18.8 12.4,41.8 v -69 q -3.2,4.4 -5.2,6.8 -10,-7.4 -16.8,-10.4 7.6,-9.2 13,-19.2 h -28.4 q -13,54.4 -40.2,93.8 -7.4,-8.6 -18,-16.6 24.2,-33 33.8,-77.2 H 160 v -22 h 31.4 q 2.6,-15.2 5.4,-37.8 12.8,1.8 23.8,3 4.4,0.4 4.4,3 0,2.4 -1.6,4.8 -1.6,2.4 -3.4,8.2 -1.8,5.8 -2.6,10.8 -0.8,5 -1.4,8 h 28 v 14.2 q 9.4,-20.4 15,-51.6 l 17.8,4 q 8.2,2 9.4,2.8 1.2,0.6 1.2,1.8 0,1.2 -0.6,2.2 z m 2.8,47.4 h -18 v 15.8 h 18 z m 0,35.8 h -18 v 15.8 h 18 z m -69.8,27.2 q -5.4,11.6 -13,25 l 19.4,-5 q -3.2,-11.2 -6.4,-20 z m 69.8,30 v -20.6 h -18 v 20.6 z M 513,889 q -2,-10.2 -6.4,-20.8 l 31.6,-3.4 q 2.8,12.2 4,24.2 h 50 v 21.4 H 465.6 v -17.2 l -8.2,21 v 139.6 h -23.8 v -93.6 q -6.8,10 -11.8,16 -7.6,-7.6 -19,-15.6 33,-35.4 42,-95.6 10.4,2 19,4.4 8.6,2.2 10,3.2 1.4,0.8 1.4,2.4 0,1.4 -2.4,4.4 -2.4,2.8 -5.4,9.6 z m 65,52.4 H 476.8 V 920.8 H 578 Z m 0,29.6 H 476 v -20 h 102 z m -80,71.8 v 9.6 h -23.8 v -71.2 h 105.2 v 71.2 h -25.8 v -9.6 z m 55.6,-20.2 V 1002 H 498 v 20.6 z m 183.6,-140 q -1.6,-8.6 -3.4,-15.2 l 31.4,-2.8 q 2,10.4 2.6,18 H 836 v 20.8 H 663.8 V 882.6 Z M 808,954.8 H 695 v -45.4 h 113 z m -27.8,-17.2 v -10.4 h -59.6 v 10.4 z m -47.6,95.8 v 6.6 h -21.8 v -52.6 h 78.6 v 41.2 q 7,1 10,1 3.2,0 4,-1.4 0.8,-1.2 0.8,-5 v -42 H 696.8 v 70.8 h -24.6 v -91 h 157.4 v 64.6 q 0,9.8 -3,15.4 -2.8,5.6 -10.6,8.6 -7.8,3 -23,4 -0.2,-10 -3.6,-17.4 v 3 h -23 v -5.8 z m 33.8,-16.6 V 1005 h -33.8 v 11.8 z m 247.4,-112 h -48 v -20.6 h 48 v -16.6 h 21.8 q 4.8,0 4.8,2.6 0,1.2 -1.4,3.6 -1.2,2.4 -1.2,10.4 h 49.2 v 20.6 h -49.4 V 916 h 40.6 v 53.4 h -23 q 15.6,13 34,30.8 l -20,15.6 q -13,-16.6 -31.6,-30.8 v 34.4 h -23.8 v -36 q -13.2,18.2 -35.4,33.4 -7.8,-8.2 -18.8,-16.8 15,-8 22.8,-14.2 8,-6.4 14.6,-16.4 H 974 V 916 h 39.8 z m 0,45.8 v -15.4 h -17 v 15.4 z m 23.8,-15.4 v 15.4 h 17.2 v -15.4 z m 0,34.2 v 13.2 l 15.6,-13.2 z m -72.8,-61 -24.6,11.2 q -8,-18.8 -22,-36.4 l 23.6,-12.6 q 15.2,22.6 23,37.8 z m 133.2,112.4 q -4.4,12 -6.2,25.8 -26.8,1 -49,1 -48.2,0 -64.2,-3.6 -15.8,-3.4 -22.6,-9.6 -4.4,-4 -6.6,-4 -2,0 -4.8,2.4 -2.8,2.4 -9.4,8.8 -6.6,6.4 -9.4,11 -11.8,-12.2 -20.6,-20.8 12.8,-10 19,-13.6 6.4,-3.6 7.6,-5.6 1.4,-2.2 1.4,-7.8 V 951.4 H 910 v -22.2 h 47.8 v 71.6 q 0,6.6 5.2,11.8 5.2,5 12.2,7.4 7.2,2.4 22.8,3.6 15.8,1.2 43.6,1.2 28,0 56.4,-4 z"
     id="text5"
     aria-label="雄信高速" />
  <path
     style="font-size:100px;font-family:A型交通标志专用字体;letter-spacing:100;text-anchor:middle;fill:#535353"
     d="m 413.9,118.7 q 0.8,-2.8 1.3,-6.8 l 9.4,0.6 q 4.3,0.2 4.8,0.5 0.5,0.2 0.5,0.8 0,0.5 -0.4,1.2 l -2.3,3.7 h 34.1 v 48.5 h -71.2 v -48.5 z m -5.6,20.1 q -1.1,-3.3 -4,-8 l 9.8,-2.3 q 1.7,3.4 3.1,8.3 l -7.7,2 h 10.2 v -10.1 h 9.6 q 2.6,0 2.6,0.8 0,0.8 -0.5,2 -0.4,1.2 -0.5,2.3 -0.1,1 -0.1,5 h 8.5 l -5.8,-1.7 q 2.5,-4 4.5,-8.7 7.8,2.2 8.4,2.6 0.7,0.3 0.7,0.8 0,0.5 -0.8,1 -0.7,0.5 -4.4,6 h 6.2 v 8.3 h -8.9 q 4.4,2.7 8.6,6 l -5.2,5.4 h 6.4 v -30.3 h -47.8 v 23.5 q 5.6,-1.7 10.2,-4.6 h -9.2 v -8.3 z m 26.6,8.3 h -4.1 v 3.9 z m -15.2,4.1 q -4.9,4.3 -10.7,7.3 h 10.7 z m 21.3,7.3 q -4.9,-3.8 -10.2,-7.2 v 7.2 z m -34.5,0 q -3,-3.8 -5.3,-6 v 6 z m -3.2,21.1 H 378.9 V 170 h 92.6 v 9.6 h -54.4 l -1.2,3.2 h 42.3 l -1.3,9.4 q -1,6.8 -3,9.8 -1.9,3 -6.8,4.2 -4.9,1.3 -15.8,1.7 -0.4,-6 -3.6,-13 8.4,1.1 10.9,1.1 2.5,0 3.3,-0.8 0.9,-0.7 1,-3.3 h -44.2 z m 215.3,-58.3 q -0.8,-4.3 -1.7,-7.6 l 15.7,-1.4 q 1,5.2 1.3,9 H 668 v 10.4 H 581.9 V 121.3 Z M 654,157.4 H 597.5 V 134.7 H 654 Z m -13.9,-8.6 v -5.2 h -29.8 v 5.2 z m -23.8,47.9 v 3.3 h -10.9 v -26.3 h 39.3 v 20.6 q 3.5,0.5 5,0.5 1.6,0 2,-0.7 0.4,-0.6 0.4,-2.5 v -21 H 598.4 V 206 h -12.3 v -45.5 h 78.7 v 32.3 q 0,4.9 -1.5,7.7 -1.4,2.8 -5.3,4.3 -3.9,1.5 -11.5,2 -0.1,-5 -1.8,-8.7 v 1.5 h -11.5 v -2.9 z m 16.9,-8.3 v -5.9 h -16.9 v 5.9 z m 198.7,-56 h -24 v -10.3 h 24 v -8.3 h 10.9 q 2.4,0 2.4,1.3 0,0.6 -0.7,1.8 -0.6,1.2 -0.6,5.2 h 24.6 v 10.3 h -24.7 v 5.6 h 20.3 v 26.7 h -11.5 q 7.8,6.5 17,15.4 l -10,7.8 q -6.5,-8.3 -15.8,-15.4 v 17.2 h -11.9 v -18 q -6.6,9.1 -17.7,16.7 -3.9,-4.1 -9.4,-8.4 7.5,-4 11.4,-7.1 4,-3.2 7.3,-8.2 H 812 V 138 h 19.9 z m 0,22.9 v -7.7 h -8.5 v 7.7 z m 11.9,-7.7 v 7.7 h 8.6 v -7.7 z m 0,17.1 v 6.6 l 7.8,-6.6 z m -36.4,-30.5 -12.3,5.6 q -4,-9.4 -11,-18.2 l 11.8,-6.3 q 7.6,11.3 11.5,18.9 z m 66.6,56.2 q -2.2,6 -3.1,12.9 -13.4,0.5 -24.5,0.5 -24.1,0 -32.1,-1.8 -7.9,-1.7 -11.3,-4.8 -2.2,-2 -3.3,-2 -1,0 -2.4,1.2 -1.4,1.2 -4.7,4.4 -3.3,3.2 -4.7,5.5 -5.9,-6.1 -10.3,-10.4 6.4,-5 9.5,-6.8 3.2,-1.8 3.8,-2.8 0.7,-1.1 0.7,-3.9 V 155.7 H 780 v -11.1 h 23.9 v 35.8 q 0,3.3 2.6,5.9 2.6,2.5 6.1,3.7 3.6,1.2 11.4,1.8 7.9,0.6 21.8,0.6 14,0 28.2,-2 z"
     id="text6"
     aria-label="粤高速" />
</svg>
